# xmcd
#
# Track frame offsets: 
#        150
#        42526
#        66783
#        97483
#        122052
#        172466
#
# Disc length: 2784 seconds
#
# Revision: 3
# Processed by: cddbd v1.5.2PL0 Copyright (c) Steve Scherf et al.
# Submitted via: ExactAudioCopyFreeDBPlugin 1.0
#
DISCID=600ade06
DTITLE=Wigald Boning liest Stanislaw Lem - Stanislaw Lem - Die Sternta
DTITLE=gebücher 8.te Reise
DYEAR=2005
DGENRE=Hörbuch
TTITLE0=8. Reise - Lektion 1
TTITLE1=8. Reise - Lektion 2
TTITLE2=8. Reise - Lektion 3
TTITLE3=8. Reise - Lektion 4
TTITLE4=8. Reise - Lektion 5
TTITLE5=8. Reise - Lektion 6
EXTD=
EXTT0=
EXTT1=
EXTT2=
EXTT3=
EXTT4=
EXTT5=
PLAYORDER=
